<svg width="508" height="130" viewBox="0 0 508 130" fill="none" xmlns="http://www.w3.org/2000/svg">
<path d="M84.15 18.35L96.35 49.8C96.85 51.0667 97.4167 51.9167 98.05 52.35C98.6833 52.75 99.2667 52.9667 99.8 53V54C99.1333 53.9333 98.3167 53.9 97.35 53.9C96.3833 53.8667 95.4167 53.85 94.45 53.85C93.15 53.85 91.9333 53.8667 90.8 53.9C89.6667 53.9 88.75 53.9333 88.05 54V53C89.75 52.9333 90.8333 52.65 91.3 52.15C91.7667 51.6167 91.6667 50.5 91 48.8L81.7 23.95L82.5 23.3L73.8 45.9C73.2667 47.2333 72.95 48.3667 72.85 49.3C72.75 50.2 72.8333 50.9167 73.1 51.45C73.4 51.9833 73.8833 52.3667 74.55 52.6C75.25 52.8333 76.1167 52.9667 77.15 53V54C76.2167 53.9333 75.2333 53.9 74.2 53.9C73.2 53.8667 72.2667 53.85 71.4 53.85C70.5667 53.85 69.85 53.8667 69.25 53.9C68.6833 53.9 68.15 53.9333 67.65 54V53C68.3167 52.8333 69 52.45 69.7 51.85C70.4 51.2167 71.0333 50.15 71.6 48.65L83.35 18.35C83.4833 18.35 83.6167 18.35 83.75 18.35C83.8833 18.35 84.0167 18.35 84.15 18.35ZM90.25 39.6V40.6H75.35L75.85 39.6H90.25ZM108.894 14.8V49.35C108.894 50.75 109.177 51.7 109.744 52.2C110.344 52.7 111.327 52.95 112.694 52.95V54C112.127 53.9667 111.261 53.9333 110.094 53.9C108.961 53.8333 107.811 53.8 106.644 53.8C105.511 53.8 104.361 53.8333 103.194 53.9C102.027 53.9333 101.161 53.9667 100.594 54V52.95C101.961 52.95 102.927 52.7 103.494 52.2C104.094 51.7 104.394 50.75 104.394 49.35V20.8C104.394 19.3 104.127 18.2 103.594 17.5C103.061 16.7667 102.061 16.4 100.594 16.4V15.35C101.661 15.45 102.694 15.5 103.694 15.5C104.661 15.5 105.577 15.45 106.444 15.35C107.344 15.2167 108.161 15.0333 108.894 14.8ZM123.201 14.8V49.35C123.201 50.75 123.484 51.7 124.051 52.2C124.651 52.7 125.634 52.95 127.001 52.95V54C126.434 53.9667 125.567 53.9333 124.401 53.9C123.267 53.8333 122.117 53.8 120.951 53.8C119.817 53.8 118.667 53.8333 117.501 53.9C116.334 53.9333 115.467 53.9667 114.901 54V52.95C116.267 52.95 117.234 52.7 117.801 52.2C118.401 51.7 118.701 50.75 118.701 49.35V20.8C118.701 19.3 118.434 18.2 117.901 17.5C117.367 16.7667 116.367 16.4 114.901 16.4V15.35C115.967 15.45 117.001 15.5 118.001 15.5C118.967 15.5 119.884 15.45 120.751 15.35C121.651 15.2167 122.467 15.0333 123.201 14.8Z" fill="#3B1E04"/>
<path d="M164 119.865C160.975 119.865 158.386 118.668 156.231 116.274C154.077 113.881 153 111.004 153 107.643V55.3925C149.608 53.1518 146.927 50.1726 144.956 46.455C142.986 42.7374 142 38.6888 142 34.3092C142 27.587 144.154 21.8323 148.463 17.0453C152.771 12.2583 157.95 9.86475 164 9.86475H230C236.05 9.86475 241.229 12.2583 245.538 17.0453C249.846 21.8323 252 27.587 252 34.3092C252 38.6888 251.015 42.7374 249.044 46.455C247.073 50.1726 244.392 53.1518 241 55.3925V107.643C241 111.004 239.923 113.881 237.769 116.274C235.615 118.668 233.025 119.865 230 119.865H164ZM164 107.643H230V48.3647L235.5 44.6981C237.15 43.5777 238.479 42.1009 239.488 40.2675C240.496 38.4342 241 36.4481 241 34.3092C241 30.9481 239.923 28.0708 237.769 25.6772C235.615 23.2837 233.025 22.087 230 22.087H164C160.975 22.087 158.386 23.2837 156.231 25.6772C154.077 28.0708 153 30.9481 153 34.3092C153 36.5499 153.481 38.6124 154.444 40.4967C155.406 42.3809 156.758 43.8833 158.5 45.0036L164 48.3647V107.643ZM193.15 93.587C194.25 94.7073 195.556 95.2675 197.069 95.2675C198.581 95.2675 199.842 94.7073 200.85 93.587L217.35 75.2536C218.45 74.0314 219 72.58 219 70.8995C219 69.2189 218.45 67.8184 217.35 66.6981L200.85 48.3647C199.842 47.1425 198.581 46.5314 197.069 46.5314C195.556 46.5314 194.25 47.1425 193.15 48.3647L176.65 66.6981C175.642 67.8184 175.138 69.2189 175.138 70.8995C175.138 72.58 175.642 74.0314 176.65 75.2536L193.15 93.587ZM197 80.7536L188.2 70.9759L197 61.1981L205.8 70.9759L197 80.7536Z" fill="#3B1E04"/>
<path d="M17.15 68.35L29.35 99.8C29.85 101.067 30.4167 101.917 31.05 102.35C31.6833 102.75 32.2667 102.967 32.8 103V104C32.1333 103.933 31.3167 103.9 30.35 103.9C29.3833 103.867 28.4167 103.85 27.45 103.85C26.15 103.85 24.9333 103.867 23.8 103.9C22.6667 103.9 21.75 103.933 21.05 104V103C22.75 102.933 23.8333 102.65 24.3 102.15C24.7667 101.617 24.6667 100.5 24 98.8L14.7 73.95L15.5 73.3L6.8 95.9C6.26667 97.2333 5.95 98.3667 5.85 99.3C5.75 100.2 5.83333 100.917 6.1 101.45C6.4 101.983 6.88333 102.367 7.55 102.6C8.25 102.833 9.11667 102.967 10.15 103V104C9.21667 103.933 8.23333 103.9 7.2 103.9C6.2 103.867 5.26667 103.85 4.4 103.85C3.56667 103.85 2.85 103.867 2.25 103.9C1.68333 103.9 1.15 103.933 0.65 104V103C1.31667 102.833 2 102.45 2.7 101.85C3.4 101.217 4.03333 100.15 4.6 98.65L16.35 68.35C16.4833 68.35 16.6167 68.35 16.75 68.35C16.8833 68.35 17.0167 68.35 17.15 68.35ZM23.25 89.6V90.6H8.35L8.85 89.6H23.25ZM48.7941 77.55C51.5275 77.55 53.7941 78.6833 55.5941 80.95C57.3941 83.1833 58.2941 86.5833 58.2941 91.15C58.2941 94.15 57.7775 96.6667 56.7441 98.7C55.7441 100.7 54.3941 102.2 52.6941 103.2C50.9941 104.2 49.1441 104.7 47.1441 104.7C45.4775 104.7 43.8608 104.233 42.2941 103.3C40.7608 102.333 39.6108 100.917 38.8441 99.05L39.8441 99.6C40.6775 100.933 41.7108 101.933 42.9441 102.6C44.1775 103.233 45.4441 103.55 46.7441 103.55C48.9775 103.55 50.6441 102.55 51.7441 100.55C52.8775 98.5167 53.4441 95.3833 53.4441 91.15C53.4441 88.45 53.2275 86.2 52.7941 84.4C52.3608 82.6 51.6941 81.2667 50.7941 80.4C49.8941 79.5 48.7441 79.05 47.3441 79.05C45.8108 79.05 44.3775 79.75 43.0441 81.15C41.7441 82.5167 40.9441 84.5333 40.6441 87.2L40.0441 86.5C40.4108 83.6667 41.3941 81.4667 42.9941 79.9C44.6275 78.3333 46.5608 77.55 48.7941 77.55ZM40.9941 64.85V101.4C40.5608 101.767 40.1108 102.15 39.6441 102.55C39.2108 102.917 38.7775 103.283 38.3441 103.65C37.9108 104.017 37.4608 104.4 36.9941 104.8L36.1441 104.45C36.2775 103.983 36.3608 103.517 36.3941 103.05C36.4608 102.55 36.4941 102.05 36.4941 101.55V70.85C36.4941 69.35 36.2275 68.25 35.6941 67.55C35.1608 66.8167 34.1608 66.45 32.6941 66.45V65.4C33.7608 65.5 34.7941 65.55 35.7941 65.55C36.7608 65.55 37.6775 65.5 38.5441 65.4C39.4441 65.2667 40.2608 65.0833 40.9941 64.85ZM74.368 77.55C76.5013 77.55 78.418 78.0167 80.118 78.95C81.818 79.8833 83.168 81.35 84.168 83.35C85.2013 85.35 85.718 87.95 85.718 91.15C85.718 94.35 85.2013 96.95 84.168 98.95C83.168 100.917 81.818 102.367 80.118 103.3C78.418 104.233 76.5013 104.7 74.368 104.7C72.268 104.7 70.3513 104.233 68.618 103.3C66.918 102.367 65.5513 100.917 64.518 98.95C63.518 96.95 63.018 94.35 63.018 91.15C63.018 87.95 63.518 85.35 64.518 83.35C65.5513 81.35 66.918 79.8833 68.618 78.95C70.3513 78.0167 72.268 77.55 74.368 77.55ZM74.368 78.55C72.468 78.55 70.9013 79.5333 69.668 81.5C68.468 83.4667 67.868 86.6833 67.868 91.15C67.868 95.6167 68.468 98.8333 69.668 100.8C70.9013 102.733 72.468 103.7 74.368 103.7C76.268 103.7 77.818 102.733 79.018 100.8C80.2513 98.8333 80.868 95.6167 80.868 91.15C80.868 86.6833 80.2513 83.4667 79.018 81.5C77.818 79.5333 76.268 78.55 74.368 78.55ZM112.211 77.7V98.6C112.211 100.1 112.477 101.217 113.011 101.95C113.577 102.65 114.577 103 116.011 103V104.05C114.977 103.95 113.944 103.9 112.911 103.9C111.944 103.9 111.011 103.95 110.111 104.05C109.244 104.15 108.444 104.333 107.711 104.6V98.7C106.877 100.867 105.694 102.417 104.161 103.35C102.661 104.25 101.111 104.7 99.5105 104.7C98.3439 104.7 97.3272 104.533 96.4605 104.2C95.5939 103.867 94.8772 103.4 94.3105 102.8C93.6772 102.133 93.2439 101.267 93.0105 100.2C92.7772 99.1333 92.6605 97.8167 92.6605 96.25V83.7C92.6605 82.2 92.3939 81.1 91.8605 80.4C91.3272 79.6667 90.3272 79.3 88.8605 79.3V78.25C89.9272 78.35 90.9605 78.4 91.9605 78.4C92.9272 78.4 93.8439 78.35 94.7105 78.25C95.6105 78.1167 96.4272 77.9333 97.1605 77.7V97.35C97.1605 98.3833 97.2272 99.3333 97.3605 100.2C97.4939 101.067 97.8272 101.767 98.3605 102.3C98.8939 102.833 99.7605 103.1 100.961 103.1C102.261 103.1 103.411 102.7 104.411 101.9C105.444 101.1 106.244 100.017 106.811 98.65C107.411 97.2833 107.711 95.75 107.711 94.05V83.7C107.711 82.2 107.444 81.1 106.911 80.4C106.377 79.6667 105.377 79.3 103.911 79.3V78.25C104.977 78.35 106.011 78.4 107.011 78.4C107.977 78.4 108.894 78.35 109.761 78.25C110.661 78.1167 111.477 77.9333 112.211 77.7ZM126.613 69.95V78.3H134.013V79.3H126.613V98.65C126.613 100.217 126.897 101.317 127.463 101.95C128.03 102.583 128.813 102.9 129.813 102.9C130.813 102.9 131.68 102.5 132.413 101.7C133.147 100.867 133.78 99.4833 134.313 97.55L135.313 97.8C134.98 99.7333 134.313 101.367 133.313 102.7C132.347 104.033 130.847 104.7 128.813 104.7C127.68 104.7 126.747 104.55 126.013 104.25C125.28 103.983 124.63 103.583 124.063 103.05C123.33 102.283 122.813 101.367 122.513 100.3C122.247 99.2333 122.113 97.8167 122.113 96.05V79.3H117.313V78.3H122.113V70.65C122.947 70.6167 123.747 70.55 124.513 70.45C125.28 70.35 125.98 70.1833 126.613 69.95Z" fill="#3B1E04"/>
<path d="M256.52 43.28C258.26 43.34 260.54 43.4 263.36 43.46C266.24 43.52 269.12 43.55 272 43.55C275 43.55 277.88 43.52 280.64 43.46C283.4 43.4 285.35 43.37 286.49 43.37C294.71 43.37 300.83 44.69 304.85 47.33C308.87 49.97 310.88 53.36 310.88 57.5C310.88 59.6 310.13 61.79 308.63 64.07C307.13 66.29 304.85 68.27 301.79 70.01C298.73 71.69 294.83 72.83 290.09 73.43V73.61C296.27 73.91 301.22 74.87 304.94 76.49C308.66 78.11 311.36 80.09 313.04 82.43C314.72 84.71 315.56 87.08 315.56 89.54C315.56 93.56 314.48 96.86 312.32 99.44C310.16 102.02 307.04 103.94 302.96 105.2C298.94 106.4 294.14 107 288.56 107C287.12 107 284.99 106.97 282.17 106.91C279.41 106.79 276.08 106.73 272.18 106.73C269.18 106.73 266.24 106.76 263.36 106.82C260.54 106.82 258.26 106.88 256.52 107V105.2C258.38 105.08 259.76 104.84 260.66 104.48C261.56 104.12 262.16 103.4 262.46 102.32C262.76 101.24 262.91 99.62 262.91 97.46V52.82C262.91 50.6 262.76 48.98 262.46 47.96C262.16 46.88 261.53 46.16 260.57 45.8C259.67 45.38 258.32 45.14 256.52 45.08V43.28ZM286.04 45.08C284 45.08 282.68 45.59 282.08 46.61C281.48 47.63 281.18 49.7 281.18 52.82V97.46C281.18 99.56 281.33 101.15 281.63 102.23C281.93 103.31 282.5 104.03 283.34 104.39C284.18 104.75 285.41 104.93 287.03 104.93C290.39 104.93 292.82 103.58 294.32 100.88C295.88 98.12 296.66 94.22 296.66 89.18C296.66 84.56 295.55 80.99 293.33 78.47C291.17 75.95 287.54 74.69 282.44 74.69H275.87C275.87 74.69 275.87 74.45 275.87 73.97C275.87 73.43 275.87 73.16 275.87 73.16H283.61C285.95 73.16 287.75 72.5 289.01 71.18C290.27 69.8 291.14 68 291.62 65.78C292.1 63.5 292.34 61.07 292.34 58.49C292.34 54.05 291.86 50.72 290.9 48.5C289.94 46.22 288.32 45.08 286.04 45.08ZM352.109 59.03C354.269 59.03 355.949 59.51 357.149 60.47C358.349 61.37 359.189 62.54 359.669 63.98C360.149 65.36 360.389 66.74 360.389 68.12C360.389 70.82 359.609 72.98 358.049 74.6C356.549 76.16 354.569 76.94 352.109 76.94C349.469 76.94 347.459 76.34 346.079 75.14C344.759 73.94 344.099 72.38 344.099 70.46C344.099 68.42 344.519 66.74 345.359 65.42C346.259 64.1 347.369 62.99 348.689 62.09C347.609 62.09 346.649 62.3 345.809 62.72C345.089 63.02 344.399 63.44 343.739 63.98C343.079 64.52 342.509 65.15 342.029 65.87C341.549 66.53 341.159 67.28 340.859 68.12C340.619 68.96 340.499 69.83 340.499 70.73V97.73C340.499 100.61 341.099 102.56 342.299 103.58C343.499 104.6 345.479 105.11 348.239 105.11V107C346.859 106.94 344.789 106.88 342.029 106.82C339.329 106.7 336.539 106.64 333.659 106.64C330.959 106.64 328.229 106.7 325.469 106.82C322.709 106.88 320.639 106.94 319.259 107V105.11C321.119 105.11 322.409 104.66 323.129 103.76C323.909 102.86 324.299 101.15 324.299 98.63V70.1C324.299 67.4 323.939 65.42 323.219 64.16C322.499 62.84 321.179 62.18 319.259 62.18V60.29C321.179 60.47 323.039 60.56 324.839 60.56C327.839 60.56 330.629 60.47 333.209 60.29C335.849 60.05 338.279 59.72 340.499 59.3V65.78C341.279 64.22 342.239 62.96 343.379 62C344.519 60.98 345.809 60.23 347.249 59.75C348.749 59.27 350.369 59.03 352.109 59.03ZM385.74 59.03C391.02 59.03 395.16 60.59 398.16 63.71C401.22 66.77 402.75 71.93 402.75 79.19H374.58L374.4 77.48H389.61C389.67 74.54 389.55 71.84 389.25 69.38C388.95 66.86 388.47 64.85 387.81 63.35C387.15 61.85 386.25 61.1 385.11 61.1C383.49 61.1 382.17 62.39 381.15 64.97C380.13 67.49 379.47 71.84 379.17 78.02L379.53 78.74C379.47 79.34 379.44 79.94 379.44 80.54C379.44 81.14 379.44 81.77 379.44 82.43C379.44 86.63 379.95 89.9 380.97 92.24C382.05 94.58 383.37 96.2 384.93 97.1C386.55 98 388.17 98.45 389.79 98.45C390.63 98.45 391.62 98.33 392.76 98.09C393.96 97.85 395.25 97.31 396.63 96.47C398.01 95.57 399.36 94.22 400.68 92.42L402.21 92.96C401.49 95.36 400.32 97.76 398.7 100.16C397.14 102.5 395.1 104.45 392.58 106.01C390.06 107.51 387 108.26 383.4 108.26C379.56 108.26 376.05 107.48 372.87 105.92C369.75 104.36 367.26 101.78 365.4 98.18C363.54 94.58 362.61 89.75 362.61 83.69C362.61 77.93 363.63 73.25 365.67 69.65C367.71 65.99 370.47 63.32 373.95 61.64C377.49 59.9 381.42 59.03 385.74 59.03ZM419.124 107.63C416.304 107.63 413.994 107.09 412.194 106.01C410.394 104.93 409.074 103.52 408.234 101.78C407.454 100.04 407.064 98.21 407.064 96.29C407.064 93.77 407.634 91.73 408.774 90.17C409.914 88.55 411.384 87.26 413.184 86.3C415.044 85.28 416.994 84.44 419.034 83.78C421.074 83.12 422.994 82.49 424.794 81.89C426.654 81.23 428.154 80.48 429.294 79.64C430.434 78.74 431.004 77.6 431.004 76.22V68.21C431.004 67.25 430.824 66.2 430.464 65.06C430.164 63.92 429.564 62.93 428.664 62.09C427.764 61.25 426.414 60.83 424.614 60.83C423.654 60.83 422.724 60.98 421.824 61.28C420.984 61.52 420.234 61.88 419.574 62.36C421.674 63.14 423.204 64.25 424.164 65.69C425.124 67.07 425.604 68.6 425.604 70.28C425.604 72.68 424.764 74.57 423.084 75.95C421.404 77.33 419.424 78.02 417.144 78.02C414.744 78.02 412.884 77.27 411.564 75.77C410.244 74.27 409.584 72.41 409.584 70.19C409.584 68.33 410.034 66.77 410.934 65.51C411.894 64.19 413.304 62.99 415.164 61.91C416.964 60.89 419.124 60.17 421.644 59.75C424.164 59.27 426.804 59.03 429.564 59.03C432.504 59.03 435.234 59.33 437.754 59.93C440.274 60.47 442.434 61.67 444.234 63.53C445.494 64.85 446.304 66.5 446.664 68.48C447.024 70.46 447.204 73.01 447.204 76.13V100.25C447.204 101.75 447.294 102.77 447.474 103.31C447.714 103.85 448.104 104.12 448.644 104.12C449.124 104.12 449.574 103.97 449.994 103.67C450.474 103.37 450.924 103.07 451.344 102.77L452.244 104.3C450.924 105.44 449.274 106.28 447.294 106.82C445.374 107.36 443.334 107.63 441.174 107.63C438.594 107.63 436.584 107.33 435.144 106.73C433.764 106.07 432.774 105.23 432.174 104.21C431.634 103.13 431.334 101.99 431.274 100.79C430.014 102.77 428.424 104.42 426.504 105.74C424.644 107 422.184 107.63 419.124 107.63ZM427.674 100.43C428.334 100.43 428.904 100.34 429.384 100.16C429.924 99.92 430.464 99.5 431.004 98.9V79.91C430.584 80.69 430.014 81.47 429.294 82.25C428.634 82.97 427.944 83.72 427.224 84.5C426.504 85.28 425.814 86.12 425.154 87.02C424.554 87.92 424.044 88.97 423.624 90.17C423.264 91.31 423.084 92.66 423.084 94.22C423.084 96.5 423.504 98.12 424.344 99.08C425.244 99.98 426.354 100.43 427.674 100.43ZM501.226 36.62V97.1C501.226 99.8 501.586 101.81 502.306 103.13C503.086 104.39 504.406 105.02 506.266 105.02V106.91C504.406 106.73 502.546 106.64 500.686 106.64C497.686 106.64 494.896 106.73 492.316 106.91C489.736 107.09 487.306 107.42 485.026 107.9V47.42C485.026 44.72 484.666 42.74 483.946 41.48C483.226 40.16 481.906 39.5 479.986 39.5V37.61C481.906 37.79 483.766 37.88 485.566 37.88C488.566 37.88 491.356 37.79 493.936 37.61C496.576 37.37 499.006 37.04 501.226 36.62ZM475.666 59.03C478.306 59.03 480.526 59.36 482.326 60.02C484.126 60.62 485.716 61.61 487.096 62.99L486.106 63.98C485.326 63.32 484.456 62.84 483.496 62.54C482.536 62.18 481.636 62 480.796 62C478.036 62 475.966 63.77 474.586 67.31C473.206 70.85 472.516 76.28 472.516 83.6C472.516 88.88 472.786 92.99 473.326 95.93C473.866 98.81 474.586 100.82 475.486 101.96C476.446 103.04 477.466 103.58 478.546 103.58C480.226 103.58 481.726 102.98 483.046 101.78C484.366 100.52 485.026 98.96 485.026 97.1V101.51C483.826 103.79 482.356 105.5 480.616 106.64C478.876 107.72 476.686 108.26 474.046 108.26C470.626 108.26 467.506 107.42 464.686 105.74C461.926 104 459.736 101.3 458.116 97.64C456.496 93.98 455.686 89.21 455.686 83.33C455.686 77.87 456.496 73.37 458.116 69.83C459.796 66.23 462.136 63.53 465.136 61.73C468.136 59.93 471.646 59.03 475.666 59.03Z" fill="#3B1E04"/>
</svg>
